<?xml version="1.0" encoding="UTF-8"?>
<svg width="366px" height="76px" viewBox="0 0 366 76" version="1.1" xmlns="http://www.w3.org/2000/svg" xmlns:xlink="http://www.w3.org/1999/xlink">
    <title>photography.kasun.io copy</title>
    <g id="Welcome" stroke="none" stroke-width="1" fill="none" fill-rule="evenodd">
        <g id="Artboard-Copy-14" transform="translate(-1337.000000, -1064.000000)" fill="#000000" fill-rule="nonzero">
            <path d="M1351.96665,1068.03018 C1343.86242,1068.03018 1337.29264,1074.59996 1337.29264,1082.70419 L1337.29264,1138.57564 L1337.29264,1138.57564 L1351.96665,1138.57564 L1351.96618,1121.77764 L1355.94318,1117.23664 L1370.36082,1138.57564 L1387.54939,1138.57564 L1366.92618,1108.58564 L1386.55045,1085.66655 L1369.70635,1085.66655 L1352.75891,1105.74858 L1351.96618,1105.74864 L1351.96665,1068.03018 Z M1404.78866,1139.57457 C1407.40656,1139.57457 1409.71444,1139.22437 1411.71231,1138.52397 C1413.71018,1137.82357 1415.421,1136.8476 1416.84477,1135.59606 C1418.26854,1134.34452 1419.40525,1132.89205 1420.25492,1131.23864 L1420.66828,1131.23864 L1420.66828,1138.57564 C1428.35398,1138.57564 1434.58447,1132.34515 1434.58447,1124.65945 L1434.58447,1102.88956 L1434.58447,1102.88956 C1434.58447,1099.74349 1433.97592,1097.03948 1432.75883,1094.77752 C1431.54174,1092.51557 1429.88259,1090.66122 1427.78138,1089.21449 C1425.68017,1087.76776 1423.28043,1086.69993 1420.58216,1086.01101 C1417.88389,1085.32209 1415.06506,1084.97763 1412.12566,1084.97763 C1407.90028,1084.97763 1404.18585,1085.61488 1400.98237,1086.88938 C1397.77889,1088.16388 1395.16674,1089.97804 1393.1459,1092.33185 C1391.12507,1094.68567 1389.77019,1097.47005 1389.08127,1100.68501 L1402.65301,1101.78729 C1403.15821,1100.04202 1404.19159,1098.58955 1405.75315,1097.42987 C1407.3147,1096.27018 1409.41591,1095.69034 1412.05677,1095.69034 C1414.55985,1095.69034 1416.49457,1096.28741 1417.86092,1097.48153 C1419.22728,1098.67566 1419.91046,1100.36352 1419.91046,1102.5451 L1419.91046,1102.75178 C1419.91046,1103.87701 1419.48563,1104.72668 1418.63596,1105.30078 C1417.78629,1105.87488 1416.41993,1106.30546 1414.53688,1106.59251 C1412.65383,1106.87956 1410.17372,1107.18383 1407.09654,1107.50533 C1404.47864,1107.75793 1401.98131,1108.19425 1399.60453,1108.81428 C1397.22776,1109.4343 1395.10933,1110.35286 1393.24924,1111.56996 C1391.38916,1112.78705 1389.91946,1114.39453 1388.84015,1116.3924 C1387.76084,1118.39027 1387.22119,1120.8589 1387.22119,1123.7983 C1387.22119,1127.28883 1387.98474,1130.19951 1389.51185,1132.53036 C1391.03895,1134.86121 1393.12294,1136.61796 1395.7638,1137.8006 C1398.40466,1138.98325 1401.41295,1139.57457 1404.78866,1139.57457 Z M1408.99107,1129.44744 C1406.7406,1129.44744 1404.88626,1128.92501 1403.42804,1127.88015 C1401.96983,1126.83529 1401.24072,1125.31392 1401.24072,1123.31605 C1401.24072,1121.93821 1401.59666,1120.78427 1402.30855,1119.85423 C1403.02043,1118.92418 1404.01936,1118.18359 1405.30535,1117.63246 C1406.59133,1117.08132 1408.09548,1116.67945 1409.81778,1116.42685 C1410.62152,1116.31203 1411.51712,1116.17998 1412.50457,1116.03072 C1413.49202,1115.88145 1414.47947,1115.70922 1415.46693,1115.51403 C1416.45438,1115.31883 1417.34423,1115.10067 1418.13649,1114.85955 C1418.92875,1114.61843 1419.55452,1114.3486 1420.0138,1114.05007 L1420.0138,1114.05007 L1420.0138,1119.66477 C1420.0138,1121.52486 1419.54304,1123.18975 1418.60151,1124.65945 C1417.65999,1126.12914 1416.36252,1127.29457 1414.70911,1128.15572 C1413.0557,1129.01687 1411.14969,1129.44744 1408.99107,1129.44744 Z M1463.63881,1139.60902 C1468.23161,1139.60902 1472.2905,1138.87991 1475.81548,1137.4217 C1479.34045,1135.96348 1482.1191,1133.92543 1484.15141,1131.30753 C1486.18373,1128.68963 1487.19989,1125.6469 1487.19989,1122.17933 C1487.19989,1118.36731 1485.93687,1115.29013 1483.41082,1112.9478 C1480.88478,1110.60547 1477.04979,1108.90613 1471.90585,1107.84979 L1471.90585,1107.84979 L1462.32986,1105.92081 C1459.87271,1105.39264 1458.13893,1104.69223 1457.12851,1103.8196 C1456.11809,1102.94697 1455.61288,1101.87914 1455.61288,1100.61612 C1455.61288,1099.03161 1456.39366,1097.76284 1457.95521,1096.80984 C1459.51677,1095.85683 1461.43426,1095.38033 1463.7077,1095.38033 C1466.25671,1095.38033 1468.27754,1095.98313 1469.7702,1097.18874 C1471.26286,1098.39435 1472.1929,1099.85831 1472.56033,1101.58061 L1472.56033,1101.58061 L1485.99428,1100.75391 C1485.35128,1095.88554 1483.10655,1092.03906 1479.26008,1089.21449 C1475.41361,1086.38991 1470.14911,1084.97763 1463.46658,1084.97763 C1458.94267,1084.97763 1454.9986,1085.64358 1451.63437,1086.9755 C1448.27014,1088.30741 1445.66373,1090.20194 1443.81512,1092.65909 C1441.96652,1095.11624 1441.04222,1098.04415 1441.04222,1101.44283 C1441.04222,1105.39264 1442.2995,1108.64205 1444.81406,1111.19105 C1447.32862,1113.74006 1451.16935,1115.53125 1456.33625,1116.56463 L1456.33625,1116.56463 L1465.49889,1118.39027 C1469.97688,1119.30883 1472.23883,1121.06558 1472.28476,1123.66051 C1472.2618,1125.24503 1471.4638,1126.53675 1469.89076,1127.53569 C1468.31773,1128.53462 1466.24522,1129.03409 1463.67325,1129.03409 C1461.05536,1129.03409 1458.90822,1128.47721 1457.23185,1127.36346 C1455.55547,1126.2497 1454.49913,1124.625 1454.06281,1122.48935 L1454.06281,1122.48935 L1439.62993,1123.24716 C1440.34181,1128.29924 1442.77026,1132.28924 1446.91526,1135.21715 C1451.06027,1138.14506 1456.63478,1139.60902 1463.63881,1139.60902 Z M1510.39142,1139.26456 C1514.3642,1139.26456 1517.73417,1138.32304 1520.50133,1136.43999 C1523.26849,1134.55694 1525.24914,1132.06534 1526.44327,1128.9652 L1526.99441,1128.9652 L1526.99441,1138.57564 C1534.77523,1138.57564 1541.08283,1132.26804 1541.08283,1124.48722 L1541.08283,1100.34055 C1541.08283,1092.23632 1534.51305,1085.66655 1526.40882,1085.66655 L1526.40882,1085.66655 L1526.40882,1085.66655 L1526.40882,1116.04794 C1526.43179,1118.41323 1525.96677,1120.39962 1525.01376,1122.0071 C1524.06075,1123.61458 1522.81496,1124.82594 1521.27637,1125.64116 C1519.73778,1126.45638 1518.08437,1126.86399 1516.31614,1126.86399 C1513.53749,1126.86399 1511.32147,1125.95691 1509.66806,1124.14276 C1508.01465,1122.3286 1507.17646,1119.85997 1507.1535,1116.73686 L1507.1535,1085.66655 C1499.04927,1085.66655 1492.47949,1092.23632 1492.47949,1100.34055 L1492.47949,1119.35476 L1492.47949,1119.35476 C1492.50246,1123.48828 1493.26601,1127.03622 1494.77015,1129.99858 C1496.27429,1132.96094 1498.36976,1135.24586 1501.05655,1136.85334 C1503.74334,1138.46082 1506.85496,1139.26456 1510.39142,1139.26456 Z M1563.47521,1123.90163 L1563.47521,1107.98757 L1563.47521,1107.98757 C1563.49817,1105.71413 1563.92875,1103.76793 1564.76694,1102.14897 C1565.60512,1100.53001 1566.77629,1099.29569 1568.28043,1098.44602 C1569.78457,1097.59635 1571.5241,1097.17152 1573.499,1097.17152 C1576.4384,1097.17152 1578.74628,1098.08434 1580.42265,1099.90998 C1582.09903,1101.73562 1582.92573,1104.2674 1582.90277,1107.50533 L1582.90277,1138.57564 C1591.007,1138.57564 1597.57677,1132.00586 1597.57677,1123.90163 L1597.57677,1104.88743 L1597.57677,1104.88743 C1597.57677,1100.77687 1596.81896,1097.23467 1595.30334,1094.26083 C1593.78771,1091.28699 1591.66354,1088.99633 1588.93082,1087.38885 C1586.1981,1085.78137 1582.99462,1084.97763 1579.32038,1084.97763 C1575.39353,1084.97763 1572.05227,1085.87897 1569.29659,1087.68164 C1566.54091,1089.48432 1564.57748,1091.92424 1563.40632,1095.00142 L1562.78629,1095.00142 L1562.78629,1085.66655 C1555.06254,1085.66655 1548.8012,1091.92788 1548.8012,1099.65163 L1548.8012,1138.57564 L1548.8012,1138.57564 C1556.90543,1138.57564 1563.47521,1132.00586 1563.47521,1123.90163 Z M1613.69999,1139.47124 C1615.90454,1139.47124 1617.83352,1138.66175 1619.48693,1137.04279 C1621.14034,1135.42383 1621.96704,1133.47763 1621.96704,1131.20419 C1621.96704,1128.95372 1621.14034,1127.02474 1619.48693,1125.41726 C1617.83352,1123.80978 1615.90454,1123.00604 1613.69999,1123.00604 C1611.42656,1123.00604 1609.48036,1123.80978 1607.86139,1125.41726 C1606.24243,1127.02474 1605.43295,1128.95372 1605.43295,1131.20419 C1605.43295,1133.47763 1606.24243,1135.42383 1607.86139,1137.04279 C1609.48036,1138.66175 1611.42656,1139.47124 1613.69999,1139.47124 Z M1637.40829,1078.84624 C1639.58987,1078.84624 1641.4557,1078.11713 1643.00577,1076.65891 C1644.55584,1075.2007 1645.33087,1073.44969 1645.33087,1071.40589 C1645.33087,1069.38506 1644.55584,1067.64554 1643.00577,1066.18732 C1641.4557,1064.72911 1639.57839,1064 1637.37384,1064 C1635.21522,1064 1633.35514,1064.72911 1631.79359,1066.18732 C1630.23203,1067.64554 1629.45126,1069.38506 1629.45126,1071.40589 C1629.45126,1073.44969 1630.23203,1075.2007 1631.79359,1076.65891 C1633.35514,1078.11713 1635.22671,1078.84624 1637.40829,1078.84624 Z M1644.6764,1123.90163 L1644.6764,1085.66655 L1644.6764,1085.66655 C1636.57217,1085.66655 1630.00239,1092.23632 1630.00239,1100.34055 L1630.00239,1138.57564 L1630.00239,1138.57564 C1638.10662,1138.57564 1644.6764,1132.00586 1644.6764,1123.90163 Z M1676.30723,1139.60902 C1681.65784,1139.60902 1686.27935,1138.46656 1690.17175,1136.18164 C1694.06415,1133.89672 1697.0667,1130.70472 1699.17939,1126.60565 C1701.29208,1122.50657 1702.34842,1117.74728 1702.34842,1112.32777 C1702.34842,1106.86233 1701.29208,1102.08008 1699.17939,1097.981 C1697.0667,1093.88192 1694.06415,1090.68993 1690.17175,1088.40501 C1686.27935,1086.12009 1681.65784,1084.97763 1676.30723,1084.97763 C1670.95661,1084.97763 1666.3351,1086.12009 1662.4427,1088.40501 C1658.5503,1090.68993 1655.54776,1093.88192 1653.43507,1097.981 C1651.32238,1102.08008 1650.26603,1106.86233 1650.26603,1112.32777 C1650.26603,1117.74728 1651.32238,1122.50657 1653.43507,1126.60565 C1655.54776,1130.70472 1658.5503,1133.89672 1662.4427,1136.18164 C1666.3351,1138.46656 1670.95661,1139.60902 1676.30723,1139.60902 Z M1676.37612,1128.24183 C1673.91897,1128.24183 1671.85795,1127.54717 1670.19306,1126.15785 C1668.52817,1124.76853 1667.27663,1122.86825 1666.43844,1120.45703 C1665.60025,1118.04581 1665.18116,1115.30161 1665.18116,1112.22443 C1665.18116,1109.14725 1665.60025,1106.40305 1666.43844,1103.99183 C1667.27663,1101.58061 1668.52817,1099.6746 1670.19306,1098.27379 C1671.85795,1096.87299 1673.91897,1096.17259 1676.37612,1096.17259 C1678.8103,1096.17259 1680.84262,1096.87299 1682.47306,1098.27379 C1684.10351,1099.6746 1685.33783,1101.58061 1686.17601,1103.99183 C1687.0142,1106.40305 1687.43329,1109.14725 1687.43329,1112.22443 C1687.43329,1115.30161 1687.0142,1118.04581 1686.17601,1120.45703 C1685.33783,1122.86825 1684.10351,1124.76853 1682.47306,1126.15785 C1680.84262,1127.54717 1678.8103,1128.24183 1676.37612,1128.24183 Z" id="photography.kasun.io-copy"></path>
        </g>
    </g>
</svg>